# xmcd
#
# Track frame offsets:
#	150
#	14565
#	26452
#	49472
#	70752
#	103405
#	117647
#	138210
#	154997
#	168180
#	182615
#
# Disc length: 2768 seconds
#
# Revision: 1
# Processed by: cddbd v1.5.1PL0 Copyright (c) Steve Scherf et al.
# Submitted via: dBpowerAMP V4.0
#
DISCID=990ace0b
DTITLE=Little Smokey Smothers - BOSSMAN:Chicago Blues of...
DYEAR=1995
DGENRE=Blues
TTITLE0=Remembering
TTITLE1=Days Are Dark
TTITLE2=You're Gonna Miss me
TTITLE3=This Town's Too Small
TTITLE4=Tribute To Earl Hooker
TTITLE5=Hello Baby
TTITLE6=Talkin'  Blues
TTITLE7=Don't Misuse My Love
TTITLE8=Why Are You So Mean To Me
TTITLE9=Monkey Man
TTITLE10=43rd Street Blues
EXTD=
EXTT0=
EXTT1=
EXTT2=
EXTT3=
EXTT4=
EXTT5=
EXTT6=
EXTT7=
EXTT8=
EXTT9=
EXTT10=
PLAYORDER=
